<svg width="61.31" height="58.79" viewBox="0 0 61.31 58.79">
  <defs>
    <style>
      .cls-1 {
        fill: #00a2ff;
        fill-rule: evenodd;
      }
    </style>
  </defs>
  <path id="_" data-name="" class="cls-1"
    d="M1310.59,1648.66a5.645,5.645,0,0,1-.29,1.82,4.866,4.866,0,0,1-.84,1.55,4.953,4.953,0,0,1-1.26,1.13,8.117,8.117,0,0,1-1.55.7,8.716,8.716,0,0,1,.7,1.48,5.021,5.021,0,0,1,.28,1.75,5.208,5.208,0,0,1-.28,1.69,8.117,8.117,0,0,1-.7,1.55,9.455,9.455,0,0,1-1.27,1.05,7.3,7.3,0,0,1-1.4.78,8.023,8.023,0,0,1,.7,1.54,5.3,5.3,0,0,1,.28,1.69,5.079,5.079,0,0,1-.28,1.76,8.619,8.619,0,0,1-.7,1.47,5.987,5.987,0,0,1-1.27,1.2,3.638,3.638,0,0,1-1.55.63,4.825,4.825,0,0,1,1.13,3.24,5.024,5.024,0,0,1-.42,1.97,5.229,5.229,0,0,1-1.13,1.68,7.238,7.238,0,0,1-1.83,1.13,5.3,5.3,0,0,1-2.11.42h-18.56a10.433,10.433,0,0,1-2.25-.28,18.428,18.428,0,0,1-2.67-.84,24.043,24.043,0,0,1-2.81-1.06c-0.94-.42-1.88-0.82-2.81-1.19-1.13-.47-2.23-0.94-3.31-1.41a6.852,6.852,0,0,0-2.32-.7h-12.8v-27.43l1.13-.14h10.97a8.942,8.942,0,0,0,2.32-.28,6.385,6.385,0,0,0,2.18-1.12,23.738,23.738,0,0,0,2.88-1.97q1.62-1.275,3.87-3.1a14.178,14.178,0,0,0,5.13-9.14q0.765-5.475.77-6.32a3.249,3.249,0,0,1,.43-1.62,3.023,3.023,0,0,1,1.12-1.2,4.125,4.125,0,0,1,1.48-.77,5.549,5.549,0,0,1,1.47-.21,9.124,9.124,0,0,1,2.25.28,4.526,4.526,0,0,1,2.11,1.27,6.7,6.7,0,0,1,1.55,2.6,13.555,13.555,0,0,1,.56,4.29,29.3,29.3,0,0,1-.35,4.57,36.576,36.576,0,0,1-.91,4.15,23.294,23.294,0,0,1-1.06,3.58c-0.42,1.08-.77,1.99-1.05,2.74h19.12a5.924,5.924,0,0,1,2.18.36,6.08,6.08,0,0,1,1.76,1.05,4.528,4.528,0,0,1,1.05,1.62,5.53,5.53,0,0,1,.36,2.04h0Zm-5.35,2.95a3.638,3.638,0,0,0,1.27-.21,1.709,1.709,0,0,0,.84-0.63,4.309,4.309,0,0,0,.7-0.92,2.331,2.331,0,0,0,.29-1.19,2.713,2.713,0,0,0-.85-1.97,3.008,3.008,0,0,0-2.25-.85h-22.92l0.84-1.68q3.945-9.705,3.94-15.61c0-3.1-.51-4.9-1.55-5.42a6.082,6.082,0,0,0-2.53-.77,3.224,3.224,0,0,0-1.26.42,1.282,1.282,0,0,0-.85,1.13c0,0.56-.04,1.5-0.14,2.81a22.928,22.928,0,0,1-.84,4.5,29.08,29.08,0,0,1-2.04,5.2,14.092,14.092,0,0,1-3.73,4.64c-1.59,1.32-2.93,2.42-4,3.31a26.032,26.032,0,0,1-3.03,2.18,12.412,12.412,0,0,1-2.81,1.26,10.262,10.262,0,0,1-2.95.42h-9.71v22.79h10.41a7.669,7.669,0,0,1,2.6.63c1.08,0.42,2.41.96,4.01,1.62,0.75,0.37,1.57.77,2.46,1.19a25.892,25.892,0,0,0,2.6,1.06c0.94,0.28,1.78.54,2.53,0.77a6.893,6.893,0,0,0,1.97.35h18.56a2.788,2.788,0,0,0,1.27-.28,3.874,3.874,0,0,0,.98-0.7,1.653,1.653,0,0,0,.64-0.85,3.17,3.17,0,0,0,.21-1.12,3.069,3.069,0,0,0-.21-1.2,2.965,2.965,0,0,0-1.62-1.54,3.42,3.42,0,0,0-1.27-.22h-0.28v-2.39h3.24a3.17,3.17,0,0,0,1.12-.21,2.7,2.7,0,0,0,.99-0.63c0.18-.28.37-0.61,0.56-0.98a2.482,2.482,0,0,0,.28-1.13,2.443,2.443,0,0,0-.28-1.12,10.608,10.608,0,0,0-.56-0.99,8.739,8.739,0,0,0-.99-0.56,2.443,2.443,0,0,0-1.12-.28h-0.99v-2.39h3.52a3.17,3.17,0,0,0,1.12-.21,2.728,2.728,0,0,0,.99-0.64,3.874,3.874,0,0,0,.7-0.98,2.452,2.452,0,0,0,.28-1.13,2.745,2.745,0,0,0-.28-1.26,2.152,2.152,0,0,0-.7-0.85,3.758,3.758,0,0,0-.99-0.7,2.443,2.443,0,0,0-1.12-.28h-1.13v-2.39h4.08Z"
    transform="translate(-1249.28 -1620.09)" />
</svg>
