<svg width="59.907" height="59.91" viewBox="0 0 59.907 59.91">
  <defs>
    <style>
      .cls-1 {
        fill: #ff6363;
        fill-rule: evenodd;
      }
    </style>
  </defs>
  <path id="_" data-name="" class="cls-1"
    d="M900,1619.55a29.925,29.925,0,1,1-11.672,2.32A29.593,29.593,0,0,1,900,1619.55h0Zm0,57.51a26.481,26.481,0,0,0,10.758-2.18,26.615,26.615,0,0,0,14.625-14.62,27.656,27.656,0,0,0,0-21.52,26.615,26.615,0,0,0-14.625-14.62,27.635,27.635,0,0,0-21.516,0,26.615,26.615,0,0,0-14.625,14.62,27.644,27.644,0,0,0,0,21.52,26.615,26.615,0,0,0,14.625,14.62A26.467,26.467,0,0,0,900,1677.06h0Zm15.047-38.25a1.416,1.416,0,0,1,1.195-.56,1.847,1.847,0,0,1,1.336.56,2.178,2.178,0,0,1,.422,1.34,1.4,1.4,0,0,1-.563,1.19l-20.531,19.97a0.637,0.637,0,0,1-.492.35,3.04,3.04,0,0,1-.633.07,3.714,3.714,0,0,1-.773-0.07,0.63,0.63,0,0,1-.492-0.35l-8.016-8.01a1.831,1.831,0,0,1-.562-1.34,1.967,1.967,0,0,1,1.757-1.76,1.818,1.818,0,0,1,1.336.57l6.75,6.75,19.266-18.71h0Z"
    transform="translate(-870.031 -1619.53)" />
</svg>
